<?xml version="1.0" encoding="UTF-8"?>
<svg id="Layer_2" data-name="Layer 2" xmlns="http://www.w3.org/2000/svg" viewBox="0 0 818.78 192.79">
  <defs>
    <style>
      .cls-1 {
        letter-spacing: -.01em;
      }

      .cls-1, .cls-2, .cls-3, .cls-4, .cls-5, .cls-6, .cls-7, .cls-8, .cls-9, .cls-10, .cls-11 {
        fill: #231f20;
      }

      .cls-12 {
        letter-spacing: -.02em;
      }

      .cls-12, .cls-13, .cls-14, .cls-15, .cls-16 {
        fill: #1c75bc;
      }

      .cls-12, .cls-14 {
        font-family: Montserrat-Regular, Montserrat;
      }

      .cls-2 {
        letter-spacing: 0em;
      }

      .cls-2, .cls-6, .cls-17, .cls-10 {
        font-family: Montserrat-Light, Montserrat;
        font-weight: 300;
      }

      .cls-4 {
        letter-spacing: 0em;
      }

      .cls-5 {
        letter-spacing: 0em;
      }

      .cls-6 {
        letter-spacing: -.02em;
      }

      .cls-7 {
        letter-spacing: -.01em;
      }

      .cls-8 {
        letter-spacing: 0em;
      }

      .cls-9 {
        letter-spacing: -.01em;
      }

      .cls-17 {
        font-size: 42.03px;
      }

      .cls-15 {
        letter-spacing: 0em;
      }

      .cls-18 {
        fill: #27aae1;
      }

      .cls-16 {
        font-family: Montserrat-Italic, Montserrat;
        font-style: italic;
      }

      .cls-19 {
        font-size: 82.57px;
      }

      .cls-11 {
        letter-spacing: 0em;
      }
    </style>
  </defs>
  <g id="Layer_1-2" data-name="Layer 1">
    <text class="cls-19" transform="translate(244.39 94.72)"><tspan class="cls-12" x="0" y="0">C</tspan><tspan class="cls-14" x="57.47" y="0">on</tspan><tspan class="cls-6" x="165.14" y="0">v</tspan><tspan class="cls-10" x="207.49" y="0">erz</tspan><tspan class="cls-16" x="330.85" y="0">IA</tspan><tspan class="cls-10" x="414.99" y="0">.</tspan><tspan class="cls-2" x="431.5" y="0">n</tspan><tspan class="cls-10" x="487.15" y="0">et</tspan></text>
    <text class="cls-17" transform="translate(245.87 145.42)"><tspan class="cls-3" x="0" y="0">B</tspan><tspan class="cls-1" x="31.61" y="0">r</tspan><tspan class="cls-9" x="47.58" y="0">e</tspan><tspan class="cls-3" x="72.04" y="0">ak a</tspan><tspan class="cls-7" x="156.57" y="0">n</tspan><tspan class="cls-3" x="184.44" y="0">y </tspan><tspan class="cls-13" x="217.44" y="0">la</tspan><tspan class="cls-15" x="252.91" y="0">n</tspan><tspan class="cls-13" x="281.24" y="0">gu</tspan><tspan class="cls-15" x="338.03" y="0">a</tspan><tspan class="cls-13" x="362.57" y="0">ge</tspan><tspan class="cls-5" x="416.33" y="0"> </tspan><tspan class="cls-8" x="427.13" y="0">b</tspan><tspan class="cls-5" x="455.42" y="0">a</tspan><tspan class="cls-4" x="479.93" y="0">rr</tspan><tspan class="cls-3" x="512.29" y="0">ie</tspan><tspan class="cls-11" x="548.36" y="0">r</tspan><tspan class="cls-3" x="564.5" y="0">.</tspan></text>
    <g>
      <path class="cls-18" d="M173.69,138.38c-1.26,2.81-3.6,5.16-5.75,7.35-13.74,13.86-31.36,24.17-50.63,27.88.18-9.67-7.28-18.11-16.93-18.68-8.55-.74-16.92,5.5-18.47,13.89,0,0-.58,2.94-.58,2.94-16.78-5.37-31.4-16.37-42.09-30.43,0,0,4.04-2.19,4.04-2.19,5.46-2.96,9.84-7.9,12.1-13.56,6.69-16.13-4.63-34.88-22.13-35.79-1.42-.11-2.84.01-4.23.12,0,0-6.93.52-6.93.52l.51-6.99c.67-9.33,2.82-18.55,6.51-27.18,3.74-8.7,8.88-16.84,15.52-23.67,0,0,5.44-5.63,5.44-5.63,2.26,3.19,5.14,8.44,8.4,10.61,4.75,3.62,11.45,4.41,16.98,2.13,7.66-3.01,12.48-11.69,10.88-19.87,0,0-1.14-6.33-1.14-6.33,12.99-.47,26.29.95,38.17,6.53,4.99,2.1,10,5.97,14.32,9.35,0,0-4.53,3.48-4.53,3.48-4.95,3.62-4.88,11.57,0,15.26,1.57,1.25,3.52,2.01,5.57,2.15,0,0,5.23.34,5.23.34l-1.81,4.69c-3.21,8.47-8.75,15.64-5.42,24.44,3.42,9.2,14.13,12.56,22.91,15.42-2.42,4.23-4.46,8.85-4.74,13.81-1.03,11.01,5.27,22.16,15.12,27.16,1.21.71,2.88,1.04,3.67,2.25h0ZM170.84,139.18c-.18.29-.02.66.11.7-.79-.3-1.55-.62-2.3-.98-16.14-7.44-22.85-27.65-14.87-43.44,0,0,1.5,3.58,1.5,3.58-9.42-2.51-20.37-7.05-24.37-16.92-4.7-10.4.8-20.13,4.14-29.33,0,0,3.42,5.03,3.42,5.03-16.64-.4-23.64-21.24-10.96-31.89,0,0,.14,7.06.14,7.06-10.18-6.98-23.67-9.44-35.98-8.9,0,0,5.04-6.37,5.04-6.37,3.13,13.09-4.14,27.55-16.61,32.86-9.26,4.17-20.64,3.1-28.94-2.81-2.78-1.95-5.2-4.38-7.16-7.17,0,0,9.74.76,9.74.76-2.71,2.86-5.12,6.02-7.29,9.37-6.52,10.19-10.42,21.98-12.15,33.94,0,0-6.43-6.46-6.43-6.46,32.74-1.87,51.35,36.92,28.43,60.64-2.79,2.85-6.09,5.21-9.69,6.93,0,0,1.25-5.59,1.25-5.59,8.21,11.15,19.47,20.21,32.4,25.57l-3.54,1.88c2.51-10.58,13.28-18.15,24.01-16.81,10.56.93,19.32,10.33,19.53,20.86,0,0-1.82-1.43-1.82-1.43,5.16-.92,10.23-2.37,15.12-4.32,12.23-4.86,23.38-12.51,32.42-22.08,1.04-1.06,1.98-2.2,2.97-3.3.49-.7,1.09-.9,1.88-1.37h0Z"/>
      <path class="cls-13" d="M212.66,110.55c0,8.03-3.12,15.57-8.8,21.25s-13.22,8.8-21.24,8.8c-3.59,0-7.08-.62-10.36-1.82-4.04-1.49-7.75-3.85-10.89-6.98-9.5-9.51-11.29-23.86-5.37-35.18,1.37-2.63,3.16-5.1,5.37-7.31,5.68-5.68,13.22-8.8,21.25-8.8s15.57,3.12,21.24,8.8c5.68,5.67,8.8,13.22,8.8,21.24Z"/>
      <circle class="cls-13" cx="182.62" cy="110.55" r="28.05"/>
      <path class="cls-13" d="M61.85,114.88c0,8.26-3.22,16.03-9.06,21.87-2.34,2.34-4.98,4.25-7.85,5.7-4.29,2.2-9.07,3.36-14.02,3.36-8.27,0-16.04-3.22-21.88-9.06-12.06-12.06-12.06-31.69,0-43.75,5.25-5.25,12.06-8.38,19.4-8.95.82-.08,1.65-.11,2.48-.11,8.26,0,16.03,3.22,21.87,9.06,5.84,5.84,9.06,13.61,9.06,21.88Z"/>
      <circle class="cls-13" cx="30.92" cy="114.88" r="28.94"/>
      <path class="cls-13" d="M112.91,186.94c-3.78,3.77-8.8,5.85-14.14,5.85s-10.37-2.08-14.15-5.85c-5.06-5.07-6.84-12.2-5.31-18.72.81-3.51,2.59-6.84,5.31-9.57,3.78-3.77,8.8-5.86,14.15-5.86s10.36,2.09,14.14,5.86c3.64,3.64,5.58,8.33,5.82,13.1.29,5.47-1.66,11.03-5.82,15.19Z"/>
      <circle class="cls-13" cx="98.77" cy="172.79" r="18"/>
      <path class="cls-13" d="M152.95,40.17c0,3.71-1.44,7.19-4.06,9.81-2.62,2.62-6.11,4.07-9.82,4.07-.16,0-.32,0-.48-.01-3.52-.12-6.82-1.55-9.33-4.06-2.62-2.62-4.07-6.1-4.07-9.81s1.45-7.2,4.07-9.82c.34-.34.69-.66,1.06-.96,2.47-2.01,5.53-3.1,8.75-3.1,3.71,0,7.2,1.44,9.82,4.06,2.62,2.62,4.06,6.11,4.06,9.82Z"/>
      <circle class="cls-13" cx="139.08" cy="40.17" r="11.88"/>
      <path class="cls-13" d="M92,23.52c0,6.28-2.44,12.19-6.89,16.63-4.44,4.45-10.35,6.89-16.63,6.89s-12.19-2.44-16.63-6.89c-.99-.99-1.88-2.06-2.66-3.18-2.75-3.92-4.23-8.57-4.23-13.45,0-6.28,2.45-12.19,6.89-16.63S62.19,0,68.47,0s12.19,2.45,16.63,6.89c3.31,3.3,5.5,7.41,6.41,11.88.32,1.55.48,3.14.48,4.75Z"/>
      <circle class="cls-13" cx="68.48" cy="23.52" r="21.52"/>
    </g>
  </g>
</svg>